Coordinates
version=1
nRows=17
nColumns=40
inDegrees=yes

Units are S.I. units (second, meters, Newtons, ...)
If the header above contains a line with 'inDegrees', this indicates whether rotational values are in degrees (yes) or radians (no).

endheader
time	pelvis_tilt	pelvis_list	pelvis_rotation	pelvis_tx	pelvis_ty	pelvis_tz	hip_flexion_r	hip_adduction_r	hip_rotation_r	knee_angle_r	knee_angle_r_beta	ankle_angle_r	subtalar_angle_r	mtp_angle_r	hip_flexion_l	hip_adduction_l	hip_rotation_l	knee_angle_l	knee_angle_l_beta	ankle_angle_l	subtalar_angle_l	mtp_angle_l	lumbar_extension	lumbar_bending	lumbar_rotation	arm_flex_r	arm_add_r	arm_rot_r	elbow_flex_r	pro_sup_r	wrist_flex_r	wrist_dev_r	arm_flex_l	arm_add_l	arm_rot_l	elbow_flex_l	pro_sup_l	wrist_flex_l	wrist_dev_l
     11.60000000	      5.25952929	      3.73159613	      5.88951545	      0.06351794	      1.32105908	     -0.00710971	     44.00022458	     -6.11597462	     -1.41782279	     66.15777615	      1.15467102	     -3.00144706	    -14.79578853	      0.00000000	     37.65689404	     -3.71839389	     -7.72873806	     92.31724784	      1.61123993	     -1.10516174	    -11.94884405	      0.00000000	    -60.76154629	     -1.13205809	     -5.34694875	     57.63685347	     16.03182519	    -55.94594165	     33.39415207	     78.40340814	      0.00000000	      0.00000000	     58.21878967	     13.97637473	    -39.60214905	     33.30012820	      2.87136617	      0.00000000	      0.00000000
     11.61700000	      5.08583449	      4.24527585	      6.31208747	      0.06330089	      1.32101570	     -0.00751133	     41.68212435	     -6.74120624	     -1.71729786	     62.75159945	      1.09522202	     -4.20944996	    -14.38760820	      0.00000000	     39.63914456	     -3.30656996	     -7.67515279	     95.11257224	      1.66002755	     -0.57749628	    -11.88783835	      0.00000000	    -60.64619806	     -1.26170914	     -5.90103783	     57.45676550	     15.92058412	    -56.02953002	     33.45426279	     78.35730862	      0.00000000	      0.00000000	     58.23550444	     14.07230272	    -39.45339998	     33.19962883	      2.99594421	      0.00000000	      0.00000000
     11.63300000	      4.92543114	      4.52668097	      6.95128035	      0.06299347	      1.32092967	     -0.00812446	     39.30178382	     -7.32203235	     -2.46717387	     59.47644760	      1.03805984	     -5.44412143	    -13.97623114	      0.00000000	     41.78113213	     -2.91969516	     -7.33259689	     97.80378039	      1.70699799	     -0.17554323	    -11.98839477	      0.00000000	    -60.51438588	     -1.08349326	     -6.35747503	     57.30376187	     15.77023916	    -56.14437810	     33.47981981	     78.38654025	      0.00000000	      0.00000000	     58.27252342	     14.14383272	    -39.27086088	     33.08436556	      2.91611552	      0.00000000	      0.00000000
     11.65000000	      4.74519542	      4.77754822	      7.65885037	      0.06265436	      1.32074044	     -0.00874748	     37.03585004	     -7.85179020	     -3.24419879	     56.56561677	      0.98725626	     -6.59494866	    -13.67531108	      0.00000000	     43.99130565	     -2.44580596	     -6.95578333	    100.23181071	      1.74937511	     -0.01927029	    -12.35041665	      0.00000000	    -60.34877044	     -0.84720666	     -6.82499474	     57.12840748	     15.65422868	    -56.24452207	     33.53540877	     78.44116896	      0.00000000	      0.00000000	     58.28088796	     14.22794979	    -39.07120770	     32.99452681	      2.81728648	      0.00000000	      0.00000000
     11.66700000	      4.54312254	      4.92511110	      8.54201860	      0.06223754	      1.32051976	     -0.00963450	     34.86952324	     -8.35270092	     -4.22049681	     54.06198358	      0.94355961	     -7.61502631	    -13.49959214	      0.00000000	     46.31175128	     -1.82845098	     -6.45386045	    102.37719151	      1.78681907	     -0.28824882	    -13.27613696	      0.00000000	    -60.14284013	     -0.41627910	     -7.28824061	     56.93090707	     15.54779061	    -56.34721223	     33.60714470	     78.46393278	      0.00000000	      0.00000000	     58.29565004	     14.31772517	    -38.90110683	     32.88332698	      2.80813492	      0.00000000	      0.00000000
     11.68300000	      4.30778543	      5.09156697	      9.38096936	      0.06174143	      1.32020403	     -0.01043657	     32.88171447	     -8.77475255	     -5.04201114	     51.96426539	      0.90694752	     -8.61849800	    -13.36742135	      0.00000000	     48.67840263	     -1.14128363	     -6.07633757	    104.24117710	      1.81935176	     -0.74861021	    -14.49566993	      0.00000000	    -59.90593986	     -0.04657755	     -7.77197511	     56.72943855	     15.46903935	    -56.42756718	     33.70267664	     78.46602815	      0.00000000	      0.00000000	     58.30625027	     14.39499048	    -38.75534985	     32.79399901	      2.83874987	      0.00000000	      0.00000000
     11.70000000	      4.06834179	      5.53249776	      9.66989907	      0.06148214	      1.31987789	     -0.01045725	     31.12914555	     -9.02866063	     -4.99203769	     50.28780539	      0.87768778	     -8.93232827	    -13.38764478	      0.00000000	     50.82919343	     -0.64425708	     -6.23711498	    105.71135564	      1.84501121	     -0.81572112	    -14.85796160	      0.00000000	    -59.69644122	     -0.29016665	     -8.21473457	     56.53036337	     15.36582354	    -56.49896906	     33.72790352	     78.40410530	      0.00000000	      0.00000000	     58.30523798	     14.49026523	    -38.68878285	     32.72361871	      2.98466790	      0.00000000	      0.00000000
     11.71700000	      3.82532979	      5.36647531	     10.78643872	      0.06081866	      1.31935356	     -0.01181467	     29.42697787	     -9.31478502	     -6.17450317	     48.84372402	      0.85248380	    -10.16345892	    -13.14460685	      0.00000000	     53.37066902	      0.31579663	     -5.55076983	    107.05591963	      1.86847828	     -1.49928534	    -16.68345850	      0.00000000	    -59.35466338	      0.65216278	     -8.61345008	     56.42848820	     15.27697351	    -56.55570516	     33.78712206	     78.42657842	      0.00000000	      0.00000000	     58.26583722	     14.51907881	    -38.46206741	     32.61291954	      2.84078773	      0.00000000	      0.00000000
     11.73300000	      3.59030396	      5.52893758	     11.38268978	      0.06033232	      1.31892874	     -0.01245311	     27.93854137	     -9.50175486	     -6.40097454	     47.84482222	      0.83504968	    -10.59391644	    -13.14341880	      0.00000000	     55.66139887	      1.14934972	     -5.42642484	    107.96459751	      1.88433770	     -1.88420429	    -17.75075889	      0.00000000	    -59.07610221	      0.97714113	     -9.05823347	     56.33085751	     15.18722817	    -56.57251094	     33.81167562	     78.44622027	      0.00000000	      0.00000000	     58.20908140	     14.52791187	    -38.24321410	     32.56320816	      2.75790108	      0.00000000	      0.00000000
     11.75000000	      3.46783186	      5.72841508	     11.57201895	      0.06004660	      1.31866340	     -0.01259448	     26.61224326	     -9.46915388	     -6.12823407	     47.21296157	      0.82402163	    -10.85356650	    -13.12811091	      0.00000000	     57.59092651	      1.65067964	     -5.47070557	    108.48116941	      1.89335358	     -1.76761693	    -18.07735280	      0.00000000	    -58.93311011	      0.98418464	     -9.32156548	     56.26992779	     15.12792175	    -56.57000155	     33.85732447	     78.34378364	      0.00000000	      0.00000000	     58.18469133	     14.55686643	    -38.19382157	     32.50471744	      2.97616623	      0.00000000	      0.00000000
     11.76700000	      3.29797888	      5.65354271	     12.04454549	      0.05969143	      1.31820911	     -0.01322264	     25.55053876	     -9.42177984	     -6.49454671	     47.00358410	      0.82036730	    -11.37830015	    -13.26774922	      0.00000000	     59.53232071	      2.28340584	     -5.23588090	    108.67117143	      1.89666974	     -1.67330255	    -19.18314491	      0.00000000	    -58.68755264	      1.43055982	     -9.49355588	     56.23592358	     15.10017081	    -56.62298993	     33.92945356	     78.28848382	      0.00000000	      0.00000000	     58.17707354	     14.56230700	    -38.10301657	     32.40475020	      2.82545809	      0.00000000	      0.00000000
     11.78300000	      3.28008122	      5.69313333	     12.26138300	      0.05948075	      1.31810195	     -0.01353450	     24.53967662	     -9.27830335	     -6.43701056	     47.17696733	      0.82339341	    -11.48611631	    -13.61710317	      0.00000000	     61.08757476	      2.76428115	     -5.16118967	    108.41248068	      1.89215474	     -1.72950508	    -20.01163274	      0.00000000	    -58.64777037	      1.63969370	     -9.63069326	     56.23913121	     15.14959411	    -56.64720664	     34.02192729	     77.89308635	      0.00000000	      0.00000000	     58.15514843	     14.63975643	    -38.17283588	     32.44529544	      2.78343752	      0.00000000	      0.00000000
     11.80000000	      3.24640196	      5.63732098	     12.30577891	      0.05942692	      1.31792025	     -0.01369557	     23.87760234	     -9.08501805	     -6.42791711	     47.80252022	      0.83431137	    -11.55518800	    -13.69068403	      0.00000000	     62.37978119	      3.05530703	     -5.02256658	    107.86242307	      1.88255442	     -1.23103442	    -20.52761595	      0.00000000	    -58.56878484	      1.78142849	     -9.60576403	     56.24503144	     15.16696694	    -56.64503587	     34.11152699	     77.78616527	      0.00000000	      0.00000000	     58.09172774	     14.53810343	    -37.73808446	     32.37028196	      2.59078721	      0.00000000	      0.00000000
     11.81700000	      3.33738298	      5.49939909	     12.31710668	      0.05942359	      1.31788525	     -0.01387830	     23.37035460	     -8.82271808	     -6.54310077	     48.87035802	      0.85294865	    -11.60596796	    -13.99201757	      0.00000000	     63.31857651	      3.29453831	     -4.72014628	    106.97949608	      1.86714444	     -0.81364022	    -20.84853971	      0.00000000	    -58.60299951	      1.95984086	     -9.54718107	     56.33863699	     15.16400513	    -56.60867480	     33.99985698	     77.26259201	      0.00000000	      0.00000000	     58.17585613	     14.70111389	    -38.44246479	     32.36787440	      3.04444044	      0.00000000	      0.00000000
     11.83300000	      3.56022132	      5.32613008	     12.16912158	      0.05959308	      1.31821381	     -0.01375514	     22.98143591	     -8.52814450	     -6.67139764	     50.29214255	      0.87776348	    -11.62291202	    -13.91739167	      0.00000000	     63.82826177	      3.32316799	     -4.37129002	    105.74072712	      1.84552384	     -0.42785071	    -20.95790881	      0.00000000	    -58.79219209	      2.05788730	     -9.35290743	     56.40200345	     15.21245921	    -56.55220935	     34.06859713	     77.23325049	      0.00000000	      0.00000000	     58.12852270	     14.66055261	    -38.32986672	     32.42875658	      3.18149072	      0.00000000	      0.00000000
     11.85000000	      3.79097251	      5.08271827	     12.00148013	      0.05982467	      1.31847412	     -0.01378459	     22.83664338	     -8.23426529	     -6.87471153	     52.09271107	      0.90918932	    -11.54553714	    -13.91145505	      0.00000000	     64.03722071	      3.33982437	     -3.93525256	    104.23880890	      1.81931042	      0.04684916	    -21.07639454	      0.00000000	    -58.97441573	      2.20192936	     -9.10099704	     56.48088778	     15.25670404	    -56.51982267	     34.10329058	     77.20922811	      0.00000000	      0.00000000	     58.09141970	     14.63761492	    -38.30818516	     32.48918904	      3.28441724	      0.00000000	      0.00000000
     11.86700000	      3.99811658	      4.81545411	     11.81366708	      0.06014325	      1.31864384	     -0.01378685	     22.98496070	     -7.98775668	     -7.11565120	     54.31337557	      0.94794723	    -11.34877682	    -13.96717010	      0.00000000	     63.96000010	      3.31508862	     -3.44718059	    102.48433366	      1.78868905	      0.64249689	    -21.08116504	      0.00000000	    -59.13777072	      2.32717169	     -8.82441718	     56.58007904	     15.30009238	    -56.52046489	     34.10664348	     77.17750444	      0.00000000	      0.00000000	     58.05843505	     14.65159288	    -38.38866278	     32.55949871	      3.37980805	      0.00000000	      0.00000000
